<svg width="89" height="100" viewBox="0 0 89 100" fill="none" xmlns="http://www.w3.org/2000/svg">
<path d="M15.904 6.232C15.7547 6.08267 15.4773 5.88 15.072 5.624C14.688 5.368 14.208 5.12267 13.632 4.888C13.0773 4.65333 12.4693 4.45067 11.808 4.28C11.1467 4.088 10.4747 3.992 9.792 3.992C8.59733 3.992 7.69067 4.216 7.072 4.664C6.47467 5.112 6.176 5.74133 6.176 6.552C6.176 7.17067 6.368 7.66133 6.752 8.024C7.136 8.38667 7.712 8.696 8.48 8.952C9.248 9.208 10.208 9.48533 11.36 9.784C12.8533 10.1467 14.144 10.5947 15.232 11.128C16.3413 11.64 17.184 12.3227 17.76 13.176C18.3573 14.008 18.656 15.1173 18.656 16.504C18.656 17.72 18.432 18.7653 17.984 19.64C17.536 20.4933 16.9173 21.1867 16.128 21.72C15.3387 22.2533 14.4427 22.648 13.44 22.904C12.4373 23.1387 11.3707 23.256 10.24 23.256C9.10933 23.256 7.97867 23.1387 6.848 22.904C5.71733 22.6693 4.62933 22.3387 3.584 21.912C2.53867 21.464 1.57867 20.9307 0.704 20.312L2.656 16.504C2.848 16.696 3.18933 16.952 3.68 17.272C4.17067 17.5707 4.768 17.88 5.472 18.2C6.176 18.4987 6.944 18.7547 7.776 18.968C8.608 19.1813 9.45067 19.288 10.304 19.288C11.4987 19.288 12.4053 19.0853 13.024 18.68C13.6427 18.2747 13.952 17.6987 13.952 16.952C13.952 16.2693 13.7067 15.736 13.216 15.352C12.7253 14.968 12.0427 14.6373 11.168 14.36C10.2933 14.0613 9.25867 13.7413 8.064 13.4C6.63467 12.9947 5.44 12.5467 4.48 12.056C3.52 11.544 2.80533 10.904 2.336 10.136C1.86667 9.368 1.632 8.408 1.632 7.256C1.632 5.69867 1.99467 4.39733 2.72 3.352C3.46667 2.28533 4.46933 1.48533 5.728 0.952C6.98667 0.397333 8.384 0.119999 9.92 0.119999C10.9867 0.119999 11.9893 0.237332 12.928 0.471998C13.888 0.706666 14.784 1.016 15.616 1.4C16.448 1.784 17.1947 2.2 17.856 2.648L15.904 6.232ZM31.689 23.16C30.025 23.16 28.5103 22.84 27.145 22.2C25.801 21.56 24.6383 20.696 23.657 19.608C22.697 18.4987 21.9503 17.2613 21.417 15.896C20.8837 14.5093 20.617 13.0907 20.617 11.64C20.617 10.1253 20.8943 8.68533 21.449 7.32C22.025 5.93333 22.8037 4.70667 23.785 3.64C24.7877 2.552 25.961 1.69867 27.305 1.08C28.6703 0.439999 30.1637 0.119999 31.785 0.119999C33.4277 0.119999 34.921 0.450666 36.265 1.112C37.6303 1.77333 38.793 2.65867 39.753 3.768C40.713 4.87733 41.4597 6.11467 41.993 7.48C42.5263 8.84533 42.793 10.2533 42.793 11.704C42.793 13.1973 42.5157 14.6373 41.961 16.024C41.4063 17.3893 40.6277 18.616 39.625 19.704C38.6437 20.7707 37.4703 21.6133 36.105 22.232C34.761 22.8507 33.289 23.16 31.689 23.16ZM25.097 11.64C25.097 12.6213 25.2463 13.5707 25.545 14.488C25.8437 15.4053 26.2703 16.2267 26.825 16.952C27.401 17.656 28.0943 18.2213 28.905 18.648C29.737 19.0533 30.6757 19.256 31.721 19.256C32.7877 19.256 33.737 19.0427 34.569 18.616C35.401 18.168 36.0943 17.5813 36.649 16.856C37.2037 16.1093 37.6197 15.288 37.897 14.392C38.1957 13.4747 38.345 12.5573 38.345 11.64C38.345 10.6587 38.185 9.72 37.865 8.824C37.5663 7.90667 37.129 7.096 36.553 6.392C35.9983 5.66667 35.305 5.10133 34.473 4.696C33.6623 4.26933 32.745 4.056 31.721 4.056C30.633 4.056 29.673 4.28 28.841 4.728C28.0303 5.15467 27.3477 5.73067 26.793 6.456C26.2383 7.18133 25.8117 7.992 25.513 8.888C25.2357 9.784 25.097 10.7013 25.097 11.64ZM46.1805 23V0.279999H50.5965V19.128H62.1805V23H46.1805ZM74.064 23.16C72.4 23.16 70.8853 22.84 69.52 22.2C68.176 21.56 67.0133 20.696 66.032 19.608C65.072 18.4987 64.3253 17.2613 63.792 15.896C63.2587 14.5093 62.992 13.0907 62.992 11.64C62.992 10.1253 63.2693 8.68533 63.824 7.32C64.4 5.93333 65.1787 4.70667 66.16 3.64C67.1627 2.552 68.336 1.69867 69.68 1.08C71.0453 0.439999 72.5387 0.119999 74.16 0.119999C75.8027 0.119999 77.296 0.450666 78.64 1.112C80.0053 1.77333 81.168 2.65867 82.128 3.768C83.088 4.87733 83.8347 6.11467 84.368 7.48C84.9013 8.84533 85.168 10.2533 85.168 11.704C85.168 13.1973 84.8907 14.6373 84.336 16.024C83.7813 17.3893 83.0027 18.616 82 19.704C81.0187 20.7707 79.8453 21.6133 78.48 22.232C77.136 22.8507 75.664 23.16 74.064 23.16ZM67.472 11.64C67.472 12.6213 67.6213 13.5707 67.92 14.488C68.2187 15.4053 68.6453 16.2267 69.2 16.952C69.776 17.656 70.4693 18.2213 71.28 18.648C72.112 19.0533 73.0507 19.256 74.096 19.256C75.1627 19.256 76.112 19.0427 76.944 18.616C77.776 18.168 78.4693 17.5813 79.024 16.856C79.5787 16.1093 79.9947 15.288 80.272 14.392C80.5707 13.4747 80.72 12.5573 80.72 11.64C80.72 10.6587 80.56 9.72 80.24 8.824C79.9413 7.90667 79.504 7.096 78.928 6.392C78.3733 5.66667 77.68 5.10133 76.848 4.696C76.0373 4.26933 75.12 4.056 74.096 4.056C73.008 4.056 72.048 4.28 71.216 4.728C70.4053 5.15467 69.7227 5.73067 69.168 6.456C68.6133 7.18133 68.1867 7.992 67.888 8.888C67.6107 9.784 67.472 10.7013 67.472 11.64ZM2.368 61V38.28H17.632V42.152H6.784V48.008H15.808V51.592H6.784V61H2.368ZM30.0953 61.16C28.4313 61.16 26.9166 60.84 25.5513 60.2C24.2073 59.56 23.0446 58.696 22.0633 57.608C21.1033 56.4987 20.3566 55.2613 19.8233 53.896C19.2899 52.5093 19.0233 51.0907 19.0233 49.64C19.0233 48.1253 19.3006 46.6853 19.8553 45.32C20.4313 43.9333 21.2099 42.7067 22.1913 41.64C23.1939 40.552 24.3673 39.6987 25.7113 39.08C27.0766 38.44 28.5699 38.12 30.1913 38.12C31.8339 38.12 33.3273 38.4507 34.6713 39.112C36.0366 39.7733 37.1993 40.6587 38.1593 41.768C39.1193 42.8773 39.8659 44.1147 40.3993 45.48C40.9326 46.8453 41.1993 48.2533 41.1993 49.704C41.1993 51.1973 40.9219 52.6373 40.3673 54.024C39.8126 55.3893 39.0339 56.616 38.0312 57.704C37.0499 58.7707 35.8766 59.6133 34.5113 60.232C33.1673 60.8507 31.6953 61.16 30.0953 61.16ZM23.5033 49.64C23.5033 50.6213 23.6526 51.5707 23.9513 52.488C24.2499 53.4053 24.6766 54.2267 25.2313 54.952C25.8073 55.656 26.5006 56.2213 27.3113 56.648C28.1433 57.0533 29.0819 57.256 30.1273 57.256C31.1939 57.256 32.1433 57.0427 32.9753 56.616C33.8073 56.168 34.5006 55.5813 35.0553 54.856C35.6099 54.1093 36.0259 53.288 36.3033 52.392C36.6019 51.4747 36.7513 50.5573 36.7513 49.64C36.7513 48.6587 36.5913 47.72 36.2713 46.824C35.9726 45.9067 35.5353 45.096 34.9593 44.392C34.4046 43.6667 33.7113 43.1013 32.8793 42.696C32.0686 42.2693 31.1513 42.056 30.1273 42.056C29.0393 42.056 28.0793 42.28 27.2473 42.728C26.4366 43.1547 25.7539 43.7307 25.1993 44.456C24.6446 45.1813 24.2179 45.992 23.9193 46.888C23.6419 47.784 23.5033 48.7013 23.5033 49.64ZM54.2188 61.16C52.4054 61.16 50.8588 60.8613 49.5788 60.264C48.3201 59.6453 47.2961 58.8027 46.5068 57.736C45.7388 56.6693 45.1734 55.464 44.8108 54.12C44.4481 52.7547 44.2668 51.336 44.2668 49.864V38.28H48.6828V49.864C48.6828 50.8027 48.7681 51.72 48.9388 52.616C49.1308 53.4907 49.4401 54.28 49.8668 54.984C50.2934 55.688 50.8588 56.2427 51.5628 56.648C52.2668 57.0533 53.1414 57.256 54.1868 57.256C55.2534 57.256 56.1388 57.0533 56.8428 56.648C57.5681 56.2213 58.1334 55.656 58.5388 54.952C58.9654 54.248 59.2748 53.4587 59.4668 52.584C59.6588 51.688 59.7548 50.7813 59.7548 49.864V38.28H64.1388V49.864C64.1388 51.4213 63.9468 52.8827 63.5628 54.248C63.2001 55.6133 62.6134 56.8187 61.8028 57.864C61.0134 58.888 59.9894 59.6987 58.7308 60.296C57.4721 60.872 55.9681 61.16 54.2188 61.16ZM73.0028 46.408V61H68.5868V38.28H72.1068L83.8507 53.256V38.312H88.2668V61H84.5868L73.0028 46.408ZM2.368 99V76.28H10.624C13.0987 76.28 15.168 76.792 16.832 77.816C18.496 78.8187 19.744 80.184 20.576 81.912C21.408 83.6187 21.824 85.5173 21.824 87.608C21.824 89.912 21.3653 91.9173 20.448 93.624C19.5307 95.3307 18.2293 96.6533 16.544 97.592C14.88 98.5307 12.9067 99 10.624 99H2.368ZM17.376 87.608C17.376 86.136 17.1093 84.8453 16.576 83.736C16.0427 82.6053 15.2747 81.7307 14.272 81.112C13.2693 80.472 12.0533 80.152 10.624 80.152H6.784V95.128H10.624C12.0747 95.128 13.3013 94.808 14.304 94.168C15.3067 93.5067 16.064 92.6107 16.576 91.48C17.1093 90.328 17.376 89.0373 17.376 87.608ZM41.0503 95.128V99H25.2743V76.28H40.7623V80.152H29.6903V85.624H39.2583V89.208H29.6903V95.128H41.0503ZM44.493 99V76.28H54.541C55.5863 76.28 56.5463 76.4933 57.421 76.92C58.317 77.3467 59.085 77.9227 59.725 78.648C60.3863 79.3733 60.8877 80.184 61.229 81.08C61.5917 81.976 61.773 82.8933 61.773 83.832C61.773 84.792 61.6023 85.72 61.261 86.616C60.941 87.4907 60.4717 88.2587 59.853 88.92C59.2343 89.5813 58.509 90.0933 57.677 90.456L62.861 99H57.997L53.325 91.384H48.909V99H44.493ZM48.909 87.512H54.445C54.9997 87.512 55.4903 87.352 55.917 87.032C56.3437 86.6907 56.685 86.2427 56.941 85.688C57.197 85.1333 57.325 84.5147 57.325 83.832C57.325 83.1067 57.1757 82.4773 56.877 81.944C56.5783 81.3893 56.1943 80.952 55.725 80.632C55.277 80.312 54.7863 80.152 54.253 80.152H48.909V87.512ZM79.3103 82.232C79.1609 82.0827 78.8836 81.88 78.4783 81.624C78.0943 81.368 77.6143 81.1227 77.0383 80.888C76.4836 80.6533 75.8756 80.4507 75.2143 80.28C74.5529 80.088 73.8809 79.992 73.1983 79.992C72.0036 79.992 71.0969 80.216 70.4783 80.664C69.8809 81.112 69.5823 81.7413 69.5823 82.552C69.5823 83.1707 69.7743 83.6613 70.1583 84.024C70.5423 84.3867 71.1183 84.696 71.8863 84.952C72.6543 85.208 73.6143 85.4853 74.7663 85.784C76.2596 86.1467 77.5503 86.5947 78.6383 87.128C79.7476 87.64 80.5903 88.3227 81.1663 89.176C81.7636 90.008 82.0623 91.1173 82.0623 92.504C82.0623 93.72 81.8383 94.7653 81.3903 95.64C80.9423 96.4933 80.3236 97.1867 79.5343 97.72C78.7449 98.2533 77.8489 98.648 76.8463 98.904C75.8436 99.1387 74.7769 99.256 73.6463 99.256C72.5156 99.256 71.3849 99.1387 70.2543 98.904C69.1236 98.6693 68.0356 98.3387 66.9903 97.912C65.9449 97.464 64.9849 96.9307 64.1103 96.312L66.0623 92.504C66.2543 92.696 66.5956 92.952 67.0863 93.272C67.5769 93.5707 68.1743 93.88 68.8783 94.2C69.5823 94.4987 70.3503 94.7547 71.1823 94.968C72.0143 95.1813 72.8569 95.288 73.7103 95.288C74.9049 95.288 75.8116 95.0853 76.4303 94.68C77.0489 94.2747 77.3583 93.6987 77.3583 92.952C77.3583 92.2693 77.1129 91.736 76.6223 91.352C76.1316 90.968 75.4489 90.6373 74.5743 90.36C73.6996 90.0613 72.6649 89.7413 71.4703 89.4C70.0409 88.9947 68.8463 88.5467 67.8863 88.056C66.9263 87.544 66.2116 86.904 65.7423 86.136C65.2729 85.368 65.0383 84.408 65.0383 83.256C65.0383 81.6987 65.4009 80.3973 66.1263 79.352C66.8729 78.2853 67.8756 77.4853 69.1343 76.952C70.3929 76.3973 71.7903 76.12 73.3263 76.12C74.3929 76.12 75.3956 76.2373 76.3343 76.472C77.2943 76.7067 78.1903 77.016 79.0223 77.4C79.8543 77.784 80.6009 78.2 81.2623 78.648L79.3103 82.232Z" fill="#F2F2F2"/>
</svg>
